<svg id="visual" viewBox="0 0 960 540" width="960" height="540" xmlns="http://www.w3.org/2000/svg" xmlns:xlink="http://www.w3.org/1999/xlink" version="1.1"><rect x="0" y="0" width="960" height="540" fill="#002233"></rect><path d="M0 451L14.5 450.2C29 449.3 58 447.7 87.2 442.2C116.3 436.7 145.7 427.3 174.8 423.2C204 419 233 420 262 427.5C291 435 320 449 349 445.2C378 441.3 407 419.7 436.2 415C465.3 410.3 494.7 422.7 523.8 430.7C553 438.7 582 442.3 611 446C640 449.7 669 453.3 698 448.3C727 443.3 756 429.7 785.2 419.7C814.3 409.7 843.7 403.3 872.8 412.2C902 421 931 445 945.5 457L960 469L960 541L945.5 541C931 541 902 541 872.8 541C843.7 541 814.3 541 785.2 541C756 541 727 541 698 541C669 541 640 541 611 541C582 541 553 541 523.8 541C494.7 541 465.3 541 436.2 541C407 541 378 541 349 541C320 541 291 541 262 541C233 541 204 541 174.8 541C145.7 541 116.3 541 87.2 541C58 541 29 541 14.5 541L0 541Z" fill="#0066FF" stroke-linecap="round" stroke-linejoin="miter"></path></svg>